inDegrees=no
num_controls=7
num_derivatives=13
num_iterations=115
num_multipliers=7
num_parameters=0
num_slacks=7
num_states=26
objective=0.510838
objective_accelerations=0.003135
objective_balance=0.002987
objective_effort=0.015606
objective_height=0.479757
objective_ligament=0.009353
solver_duration=1379.097643
status=Solve_Succeeded
success=true
DataType=double
version=3
OpenSimVersion=4.5
endheader
time	/jointset/ground_pelvis/pelvis_tilt/value	/jointset/ground_pelvis/pelvis_tx/value	/jointset/ground_pelvis/pelvis_ty/value	/jointset/hip_r/hip_flexion_r/value	/jointset/hip_r/hip_adduction_r/value	/jointset/hip_r/hip_rotation_r/value	/jointset/back/lumbar_extension/value	/jointset/patellofemoral_r/patellar_flexion_r/value	/jointset/knee_r/knee_flexion_r/value	/jointset/knee_r/knee_adduction_r/value	/jointset/knee_r/knee_rotation_r/value	/jointset/ankle_r/ankle_angle_r/value	/jointset/subtalar_r/subtalar_angle_r/value	/jointset/ground_pelvis/pelvis_tilt/speed	/jointset/ground_pelvis/pelvis_tx/speed	/jointset/ground_pelvis/pelvis_ty/speed	/jointset/hip_r/hip_flexion_r/speed	/jointset/hip_r/hip_adduction_r/speed	/jointset/hip_r/hip_rotation_r/speed	/jointset/back/lumbar_extension/speed	/jointset/patellofemoral_r/patellar_flexion_r/speed	/jointset/knee_r/knee_flexion_r/speed	/jointset/knee_r/knee_adduction_r/speed	/jointset/knee_r/knee_rotation_r/speed	/jointset/ankle_r/ankle_angle_r/speed	/jointset/subtalar_r/subtalar_angle_r/speed	/forceset/tau_hip_flexion_r	/forceset/tau_hip_adduction_r	/forceset/tau_hip_rotation_r	/forceset/tau_knee_flexion_r	/forceset/tau_ankle_angle_r	/forceset/tau_subtalar_angle_r	/forceset/tau_lumbar_extension	lambda_cid13_p0	lambda_cid14_p0	lambda_cid14_p1	lambda_cid14_p2	lambda_cid14_p3	lambda_cid14_p4	lambda_cid14_p5	/jointset/ground_pelvis/pelvis_tilt/accel	/jointset/ground_pelvis/pelvis_tx/accel	/jointset/ground_pelvis/pelvis_ty/accel	/jointset/hip_r/hip_flexion_r/accel	/jointset/hip_r/hip_adduction_r/accel	/jointset/hip_r/hip_rotation_r/accel	/jointset/back/lumbar_extension/accel	/jointset/patellofemoral_r/patellar_flexion_r/accel	/jointset/knee_r/knee_flexion_r/accel	/jointset/knee_r/knee_adduction_r/accel	/jointset/knee_r/knee_rotation_r/accel	/jointset/ankle_r/ankle_angle_r/accel	/jointset/subtalar_r/subtalar_angle_r/accel	gamma_cid13_p0	gamma_cid14_p0	gamma_cid14_p1	gamma_cid14_p2	gamma_cid14_p3	gamma_cid14_p4	gamma_cid14_p5
0	-0.006187811790471512	0.09608565632797797	0.9427920622604005	0.1762555222360518	-0.2314944587666658	-0.2618068779663542	-0.038598046466844	0.0731786387345072	0.07317863873451017	0.1731948707974812	0.1745155944065755	0.03247278518263602	-0.002742732422075151	0	0	0	0	0	0	0	0	0	0	0	0	0	0.1730938198420907	-0.1093256719595844	-0.04086067963620486	-0.38253684699682	0.4136364821374137	-0.1778936917918131	-0.06829747261906878	-39.06934560998855	81.53748495295774	-53.16186510294931	-2.282226269716206	-51.23240736010505	-697.3656215844276	25.38711724198639	0.1964835281095769	0.5231865401513728	0.04372597970321342	-0.2195066910507344	0.4689298374159589	0.2020325122508181	-1.604425713713767	0.8906227273269178	0.8906227273269077	-1.188677058074737	-0.04119356159188009	1.275521188122573	0.7998489487311832	7.975479035148424e-09	1.04335183072501e-08	-3.157830711144568e-08	1.964903776296337e-08	-1.463000283024718e-09	-5.135274367155223e-09	-2.674199293532447e-08
0.01	-0.006178963855605698	0.09611281499495074	0.942794260109303	0.176244036290332	-0.2314708222082768	-0.2617949659939504	-0.03867759097315925	0.07322215801818867	0.07322215801819867	0.1731351712671658	0.1745114898014635	0.03253744109078389	-0.002702354141032931	0.001666300983365052	0.00553302763425477	0.000434199204073945	-0.002348597014767519	0.004677224391786763	0.002351405518842072	-0.01583719975889889	0.008657521562404116	0.008657521562404654	-0.01182234829650745	-0.0007888248125865087	0.01301038068521515	0.008041474976286968	0.1775822379130997	-0.1533368176118224	-0.0417695936828303	-0.3920602527903214	0.4198532555438586	-0.1419488150627929	-0.0712304806343985	-39.0705022228975	84.93057399596225	-37.1671375723846	-4.59208126446182	-55.29979555173411	-697.737593770339	58.29434994681397	0.1362118356793166	0.5835547187812919	0.04246027722555958	-0.2502461005767205	0.4596045970478994	0.2470498941653443	-1.562611881658116	0.8463649987575885	0.8463649987576776	-1.161382269530026	-0.09290826057657904	1.325678423833152	0.8011667400083371	1.080490155546364e-08	1.465145369810596e-08	-5.801339532159475e-08	3.545609505314094e-08	-1.899497467987423e-09	1.079865923173641e-08	-6.267059755026584e-08
0.02	-0.006156551220456009	0.09619834270701029	0.94280063862754	0.1762075223956965	-0.2314019162345689	-0.2617604689018748	-0.03891335643199915	0.07335086214315416	0.07335086214315296	0.172960774543032	0.1745004606842459	0.03273457718880594	-0.002582587116642408	0.002712940055854562	0.011673809017359	0.000836133866899766	-0.005005589785018686	0.009053883063087149	0.004517023936266946	-0.03124419050503429	0.01703696824723025	0.01703696824723137	-0.02293943875667517	-0.001384902404548783	0.02649603797492095	0.01587774866981374	0.1820706559841873	-0.1973479632640605	-0.04267850772976806	-0.4015836585836933	0.4260700289503369	-0.1060039383337609	-0.07416348864970129	-39.0738984632084	88.33908329945734	-21.18022100528095	-6.888684981794793	-59.42338182520254	-697.8965596349399	91.12809308044551	0.07255114593432453	0.6447372899213945	0.03727307145358479	-0.2811858421474691	0.4088166933187014	0.1648750919673936	-1.518383911161177	0.8350077518113066	0.8350077518113056	-1.047625490806822	-0.002644117467049282	1.370576509020853	0.7588086921791973	1.363432407577886e-08	1.886938908896182e-08	-8.444848353174383e-08	5.12631523433185e-08	-2.335994652950129e-09	2.673259283062803e-08	-9.859920216520721e-08
0.03	-0.006124914757673026	0.09634602909711938	0.9428108991093904	0.1761438413154079	-0.2312906285847798	-0.2617060847015388	-0.03930056467063724	0.07356238406548822	0.07356238406548941	0.1726784175350862	0.1744852131899145	0.03306638136536918	-0.002385933700000219	0.00369955890045932	0.01773594446780981	0.001213800027419466	-0.007691829542291392	0.013170244558423	0.006354968766494999	-0.04608115734854894	0.02524080263705511	0.02524080263705571	-0.03345908698410966	-0.00166786328770546	0.03968664720179405	0.02337708607061507	0.1737540534022328	-0.1861886510535884	-0.04016922945853463	-0.3852643753523209	0.4017756953313297	-0.1072770358391685	-0.06834351410244392	-39.07952757513078	80.4596559217063	-23.09470679561608	-6.604082245600979	-53.00165391908445	-697.4582646288096	85.9349963163947	0.1244995449167134	0.56782252350077	0.03769442787597397	-0.2565217194350854	0.4080368125917974	0.1925363279882719	-1.448908090126814	0.8090765068221351	0.8090765068221165	-1.043207134939697	-0.04160183327542992	1.266583970953427	0.7341113770494144	1.553254523693685e-08	2.146629901155133e-08	-8.917320772120657e-08	5.3203033531793e-08	-2.785720441902621e-09	2.21692953704068e-08	-9.972312874447831e-08
0.04	-0.00608085564820145	0.09655051101191234	0.9428248724607513	0.1760544621021654	-0.2311391791330438	-0.261633464623014	-0.03983265358154695	0.07385514537657478	0.07385514537657481	0.1722930495156144	0.17446704013485	0.03352474780248843	-0.002116563886746891	0.00519746939276125	0.0230329139541326	0.001578707769031644	-0.01014521637626958	0.01708624345178976	0.008164199574232055	-0.06022032495930047	0.0332848459970448	0.03328484599704475	-0.04354164106066778	-0.001970014552278659	0.05180849008598493	0.03042102799217214	0.16543745082027	-0.1750293388431184	-0.03765995118732306	-0.3689450921209433	0.3774813617123224	-0.1085501333445782	-0.06252353955519746	-39.08742434409344	72.59322852848655	-25.0164863638893	-6.307385523143799	-46.63046288155356	-696.8289895877064	80.67347347689073	0.1748094754736166	0.4917040970959179	0.03472138767207666	-0.2346152574885696	0.3687441729249002	0.1591322874691644	-1.378824064608658	0.8030495458442681	0.8030495458442388	-0.9602066606315784	-0.006482193750325448	1.156823240484556	0.6677295963303995	1.741156637007098e-08	2.402978572860958e-08	-9.345029553910877e-08	5.485699356353134e-08	-3.235718985576552e-09	1.718337458937913e-08	-1.001294330962098e-07
0.05	-0.006019959116100352	0.09680500496392078	0.9428424132928571	0.1759413280047281	-0.2309496448508756	-0.2615432110484825	-0.04050289043416463	0.07422746788658038	0.07422746788658592	0.1718092440737926	0.1744460631191286	0.03409994549978231	-0.00177887355816598	0.006996227161814993	0.02782487840497727	0.00192579134920464	-0.01247763034127723	0.02078494425616407	0.009857749081839968	-0.07373406586160207	0.04114559621624015	0.04114559621623777	-0.05313742870462008	-0.002205413397922755	0.06315055657776783	0.03706264088426378	0.1619243541050568	-0.1691970748085963	-0.03656982541096009	-0.3623263338022185	0.3677865580486055	-0.1097781249115406	-0.05994967202485495	-39.09760162931404	69.42833258282222	-26.12715558721629	-6.103812050779724	-44.22246543983294	-696.6610949829281	77.74202659945294	0.184569681309923	0.466792262257783	0.0341551441255684	-0.2319559888256937	0.3650826446444694	0.1701612903344792	-1.32370214796055	0.7724752940497631	0.7724752940494912	-0.946967263873273	-0.0290612150613806	1.110828987703606	0.6542089294346781	1.689546172641592e-08	2.301076326233027e-08	-9.434758908489767e-08	5.640491603647609e-08	-3.181335668717899e-09	1.709396374420203e-08	-1.034956432623471e-07
